<?xml version="1.0" standalone="no"?>
<!DOCTYPE svg PUBLIC "-//W3C//DTD SVG 20010904//EN"
 "http://www.w3.org/TR/2001/REC-SVG-20010904/DTD/svg10.dtd">
<svg version="1.0" xmlns="http://www.w3.org/2000/svg"
 width="96.000000pt" height="96.000000pt" viewBox="0 0 96.000000 96.000000"
 preserveAspectRatio="xMidYMid meet">
<metadata>
Created by potrace 1.11, written by Peter Selinger 2001-2013
</metadata>
<g transform="translate(0.000000,96.000000) scale(0.100000,-0.100000)"
fill="#000000" stroke="none">
<path d="M364 742 c-13 -12 -9 -42 4 -40 43 5 42 8 42 -197 0 -107 -4 -195 -9
-195 -4 0 -8 -10 -7 -23 2 -32 -24 -55 -51 -46 -13 5 -25 4 -28 -1 -4 -7 -13
-7 -24 0 -10 5 -20 8 -22 7 -7 -4 17 18 45 40 41 33 41 89 0 130 -7 7 -32 13
-57 13 -32 0 -49 -6 -64 -22 -33 -38 -52 -101 -32 -113 5 -4 9 -17 9 -30 0
-25 28 -50 92 -79 34 -17 130 -19 203 -5 27 5 127 109 121 126 -3 7 -1 13 5
13 6 0 7 4 4 10 -3 5 -3 10 2 10 4 0 8 82 8 182 l0 183 23 -3 c18 -3 22 1 22
25 l0 29 -137 -1 c-97 0 -140 -4 -149 -13z"/>
<path d="M738 322 c-2 -4 -16 -15 -33 -24 -50 -28 -44 -116 9 -133 41 -13 56
-15 56 -5 0 6 7 10 15 10 18 0 45 39 41 60 -6 38 -19 57 -50 77 -19 12 -36 19
-38 15z"/>
</g>
</svg>
